<svg id="Layer_1" data-name="Layer 1" xmlns="http://www.w3.org/2000/svg" viewBox="0 0 48 48"><defs><style>.cls-1{fill:#235b9e;}.cls-2{fill:#fff;}.cls-3{fill:#f6921e;}</style></defs><path class="cls-1" d="M48,24A24,24,0,1,1,24,0,24,24,0,0,1,48,24Z"/><path class="cls-2" d="M20,39h6V24h4.45L31,18H26.23V15.6a1.27,1.27,0,0,1,1.33-1.44h3.36V9L26.29,9C21.15,9,20,12.83,20,15.29V18H17v6h3Z"/><path class="cls-1" d="M48,24A24,24,0,1,1,24,0,24,24,0,0,1,48,24Z"/><path class="cls-2" d="M20,39h6V24h4.45L31,18H26.23V15.6a1.27,1.27,0,0,1,1.33-1.44h3.36V9L26.29,9C21.15,9,20,12.83,20,15.29V18H17v6h3Z"/><path class="cls-3" d="M48,24A24,24,0,1,1,24,0,24,24,0,0,1,48,24Z"/><path class="cls-2" d="M20,39h6V24h4.45L31,18H26.23V15.6a1.27,1.27,0,0,1,1.33-1.44h3.36V9L26.29,9C21.15,9,20,12.83,20,15.29V18H17v6h3Z"/></svg>